<?xml version="1.0" encoding="UTF-8" standalone="no"?>
<svg
   width="128"
   height="134"
   viewBox="0 0 128 134"
   fill="none"
   version="1.1"
   id="svg8"
   sodipodi:docname="prophet.svg"
   xmlns:inkscape="http://www.inkscape.org/namespaces/inkscape"
   xmlns:sodipodi="http://sodipodi.sourceforge.net/DTD/sodipodi-0.dtd"
   xmlns="http://www.w3.org/2000/svg"
   xmlns:svg="http://www.w3.org/2000/svg">
  <sodipodi:namedview
     id="namedview8"
     pagecolor="#ffffff"
     bordercolor="#000000"
     borderopacity="0.25"
     inkscape:showpageshadow="2"
     inkscape:pageopacity="0.0"
     inkscape:pagecheckerboard="0"
     inkscape:deskcolor="#d1d1d1" />
  <g
     clip-path="url(#clip0_30_26)"
     id="g8">
    <path
       d="m 18.2447,118 h 90.5103 c 0.888,0 1.669,0.585 1.919,1.436 l 3.235,11 c 0.377,1.281 -0.583,2.564 -1.918,2.564 H 15.0094 c -1.3352,0 -2.2955,-1.283 -1.9187,-2.564 l 3.2353,-11 C 16.5763,118.585 17.3575,118 18.2447,118 Z"
       fill="#1a1920"
       stroke="#000000"
       stroke-width="2"
       id="path1" />
    <path
       d="m 14,111 h 99 c 1.105,0 2,0.895 2,2 v 1 c 0,1.105 -0.895,2 -2,2 H 14 c -1.1046,0 -2,-0.895 -2,-2 v -1 c 0,-1.105 0.8954,-2 2,-2 z"
       fill="#1a1920"
       stroke="#000000"
       stroke-width="2"
       id="path2" />
    <mask
       id="mask0_30_26"
       maskUnits="userSpaceOnUse"
       x="0"
       y="0"
       width="128"
       height="110">
      <rect
         width="128"
         height="110"
         fill="#d9d9d9"
         id="rect2"
         x="0"
         y="0" />
    </mask>
    <g
       mask="url(#mask0_30_26)"
       id="g4">
      <path
         d="M 126,62.5 C 126,95.8688 98.2866,123 64,123 29.7134,123 2,95.8688 2,62.5 2,29.1312 29.7134,2 64,2 c 34.2866,0 62,27.1312 62,60.5 z"
         fill="#1a1920"
         stroke="#000000"
         stroke-width="4"
         id="path3" />
      <path
         d="M 126,62.5 C 126,95.8688 98.2866,123 64,123 29.7134,123 2,95.8688 2,62.5 2,29.1312 29.7134,2 64,2 c 34.2866,0 62,27.1312 62,60.5 z"
         fill="#1a1920"
         stroke="#000000"
         stroke-width="4"
         id="path4" />
      <ellipse
         cx="64"
         cy="62.5"
         rx="52"
         ry="50.5"
         fill="#212028"
         id="ellipse4" />
    </g>
    <path
       fill-rule="evenodd"
       clip-rule="evenodd"
       d="M 105.606,26.0205 C 95.5596,16.7131 81.9653,11 67,11 36.0721,11 11,35.4005 11,65.5 11,79.5291 16.4467,92.3202 25.3943,101.98 14.6787,92.0519 8,78.035 8,62.5 8,32.4005 33.0721,8 64,8 c 16.5127,0 31.3562,6.9556 41.606,18.0205 z"
       fill="#ff0421"
       id="path5" />
    <path
       d="m 43.5,37 0.3383,1.1293 C 45.0824,42.2825 48.0569,45.6976 52,47.5 v 0 0 c -3.9431,1.8024 -6.9176,5.2175 -8.1617,9.3707 L 43.5,58 43.1617,56.8707 C 41.9176,52.7175 38.9431,49.3024 35,47.5 v 0 0 c 3.9431,-1.8024 6.9176,-5.2175 8.1617,-9.3707 z"
       fill="#ff0421"
       id="path6" />
    <path
       d="m 60.5,33 0.1629,0.5659 C 61.1604,35.2947 62.3755,36.7271 64,37.5 v 0 0 c -1.6245,0.7729 -2.8396,2.2053 -3.3371,3.9341 L 60.5,42 60.3371,41.4341 C 59.8396,39.7053 58.6245,38.2729 57,37.5 v 0 0 c 1.6245,-0.7729 2.8396,-2.2053 3.3371,-3.9341 z"
       fill="#ff0421"
       id="path7" />
    <path
       d="m 60.5,53 0.1629,0.5659 C 61.1604,55.2947 62.3755,56.7271 64,57.5 v 0 0 c -1.6245,0.7729 -2.8396,2.2053 -3.3371,3.9341 L 60.5,62 60.3371,61.4341 C 59.8396,59.7053 58.6245,58.2729 57,57.5 v 0 0 c 1.6245,-0.7729 2.8396,-2.2053 3.3371,-3.9341 z"
       fill="#ff0421"
       id="path8" />
  </g>
  <defs
     id="defs8">
    <clipPath
       id="clip0_30_26">
      <rect
         width="128"
         height="134"
         fill="#ffffff"
         id="rect8"
         x="0"
         y="0" />
    </clipPath>
  </defs>
</svg>
