<svg width="40" height="40" viewBox="0 0 40 40" fill="none" xmlns="http://www.w3.org/2000/svg">
<g id="611fd32ddac3c1856c306c37_optimism%20logo%20icon.svg" clip-path="url(#clip0_335_6)">
<path id="Vector" d="M20 40C31.0457 40 40 31.0457 40 20C40 8.95431 31.0457 0 20 0C8.95431 0 0 8.95431 0 20C0 31.0457 8.95431 40 20 40Z" fill="#FF0420"/>
<path id="Vector_2" d="M14.5055 25.6C13.2992 25.6 12.3109 25.3096 11.5404 24.7289C10.7802 24.1378 10.4 23.2978 10.4 22.2089C10.4 21.9807 10.4254 21.7007 10.476 21.3689C10.6079 20.6223 10.7954 19.7252 11.0387 18.6778C11.7279 15.8259 13.5071 14.4 16.3759 14.4C17.1564 14.4 17.8559 14.5348 18.4742 14.8045C19.0926 15.0637 19.5791 15.4578 19.9339 15.9867C20.2887 16.5052 20.4662 17.1275 20.4662 17.8534C20.4662 18.0711 20.4408 18.3459 20.3901 18.6778C20.2381 19.6007 20.0556 20.4978 19.8427 21.3689C19.4879 22.7896 18.8747 23.8526 18.0028 24.5578C17.1311 25.2526 15.9653 25.6 14.5055 25.6ZM14.7184 23.36C15.2861 23.36 15.7676 23.1889 16.163 22.8467C16.5684 22.5045 16.8574 21.9807 17.0297 21.2755C17.2628 20.3007 17.4403 19.4504 17.5619 18.7245C17.6024 18.5067 17.6227 18.2837 17.6227 18.0555C17.6227 17.1119 17.1412 16.64 16.1782 16.64C15.6105 16.64 15.1239 16.8111 14.7184 17.1534C14.3231 17.4955 14.0392 18.0193 13.8669 18.7245C13.6844 19.4193 13.5019 20.2696 13.3195 21.2755C13.279 21.483 13.2587 21.7007 13.2587 21.9289C13.2587 22.883 13.7452 23.36 14.7184 23.36Z" fill="white"/>
<path id="Vector_3" d="M21.1643 25.4445C21.0528 25.4445 20.9666 25.4082 20.9057 25.3355C20.8551 25.2526 20.8399 25.1593 20.8601 25.0555L22.9585 14.9445C22.9788 14.8304 23.0345 14.7371 23.1258 14.6645C23.217 14.5919 23.3133 14.5555 23.4147 14.5555H27.4594C28.5846 14.5555 29.4868 14.7941 30.166 15.2711C30.8553 15.7482 31.2 16.4378 31.2 17.34C31.2 17.5993 31.1696 17.8689 31.1088 18.1489C30.8553 19.3415 30.3434 20.223 29.5729 20.7934C28.8127 21.3637 27.7685 21.6489 26.4406 21.6489H24.3878L23.6884 25.0555C23.6681 25.1696 23.6124 25.263 23.5211 25.3355C23.4299 25.4082 23.3336 25.4445 23.2322 25.4445H21.1643ZM26.547 19.5023C26.9728 19.5023 27.3428 19.383 27.6571 19.1445C27.9814 18.9059 28.1943 18.5637 28.2957 18.1178C28.3261 17.9415 28.3413 17.7859 28.3413 17.6511C28.3413 17.3504 28.2552 17.1223 28.0828 16.9667C27.9104 16.8007 27.6165 16.7178 27.2008 16.7178H25.3762L24.7983 19.5023H26.547Z" fill="white"/>
</g>
<defs>
<clipPath id="clip0_335_6">
<rect width="40" height="40" fill="white"/>
</clipPath>
</defs>
</svg>
