<?xml version="1.0" encoding="UTF-8" standalone="no"?>
<svg
   width="72"
   height="24"
   viewBox="0 0 72 24"
   fill="none"
   version="1.1"
   id="svg8"
   sodipodi:docname="logo.svg"
   xmlns:inkscape="http://www.inkscape.org/namespaces/inkscape"
   xmlns:sodipodi="http://sodipodi.sourceforge.net/DTD/sodipodi-0.dtd"
   xmlns="http://www.w3.org/2000/svg"
   xmlns:svg="http://www.w3.org/2000/svg">
  <sodipodi:namedview
     id="namedview8"
     pagecolor="#ffffff"
     bordercolor="#000000"
     borderopacity="0.25"
     inkscape:showpageshadow="2"
     inkscape:pageopacity="0.0"
     inkscape:pagecheckerboard="0"
     inkscape:deskcolor="#d1d1d1" />
  <g
     id="Request"
     clip-path="url(#clip0_0_1)">
    <g
       id="Footer">
      <g
         id="TITLE">
        <path
           d="M 7.01468,19.2 C 5.90183,19.2 4.86975,19.0489 3.91845,18.7467 2.98509,18.4444 2.19532,17.9911 1.54915,17.3867 0.920932,16.7822 0.472202,16.0267 0.202964,15.12 -0.0483248,14.2133 -0.0662739,13.1467 0.149116,11.92 0.274761,11.1556 0.418354,10.4 0.579897,9.65333 0.759389,8.88889 0.938881,8.11556 1.11837,7.33333 1.7107,4.93333 2.7697,3.11111 4.29538,1.86667 5.83901,0.622222 7.87624,0 10.4071,0 c 1.1128,0 2.1359,0.16 3.0693,0.48 0.9333,0.302223 1.7231,0.76444 2.3693,1.38667 0.6462,0.62222 1.0949,1.38666 1.3462,2.29333 0.2692,0.90667 0.2961,1.96444 0.0807,3.17333 -0.1435,0.78223 -0.2961,1.55556 -0.4577,2.32 C 16.6534,10.4 16.4739,11.1556 16.2765,11.92 15.6662,14.3733 14.5982,16.2044 13.0725,17.4133 11.5469,18.6044 9.52757,19.2 7.01468,19.2 Z m 0.29616,-3.44 c 1.07695,0 2.02826,-0.3111 2.85396,-0.9333 0.8256,-0.64 1.4,-1.6534 1.7231,-3.04 C 12.0853,11.0044 12.2558,10.2756 12.3994,9.6 12.561,8.90667 12.7046,8.17778 12.8302,7.41333 13.0995,6.02667 12.9828,5.02222 12.4802,4.4 11.9956,3.76 11.2058,3.44 10.1109,3.44 9.01602,3.44 8.06471,3.76 7.257,4.4 6.44928,5.02222 5.87491,6.02667 5.53387,7.41333 5.33643,8.17778 5.16592,8.90667 5.02232,9.6 c -0.14359,0.6756 -0.28719,1.4044 -0.43078,2.1867 -0.25129,1.3866 -0.14359,2.4 0.32309,3.04 0.48462,0.6222 1.28336,0.9333 2.39621,0.9333 z"
           fill="#ff0420"
           id="path5" />
        <path
           d="M 17.4645,24 C 17.267,24 17.1234,23.9378 17.0337,23.8133 16.926,23.6889 16.8901,23.5289 16.926,23.3333 L 20.7223,5.73333 c 0.0359,-0.19555 0.1256,-0.35555 0.2692,-0.48 0.1615,-0.12444 0.3321,-0.18666 0.5115,-0.18666 h 2.5847 c 0.1795,0 0.3141,0.06222 0.4039,0.18666 0.1077,0.12445 0.1436,0.28445 0.1077,0.48 L 24.3839,6.74667 C 24.9403,6.17778 25.5506,5.71556 26.2147,5.36 26.8788,4.98667 27.7404,4.8 28.7994,4.8 c 0.9154,0 1.6962,0.15111 2.3424,0.45333 0.6641,0.28445 1.1846,0.71111 1.5615,1.28 0.3949,0.55111 0.6552,1.21778 0.7808,2 0.1257,0.76445 0.1077,1.61777 -0.0538,2.55997 -0.0539,0.3378 -0.1167,0.64 -0.1885,0.9067 -0.0538,0.2667 -0.1256,0.5689 -0.2154,0.9067 -0.2333,0.9066 -0.5474,1.7511 -0.9423,2.5333 -0.3949,0.7644 -0.8795,1.4311 -1.4539,2 -0.5744,0.5511 -1.2385,0.9867 -1.9924,1.3067 -0.7359,0.3022 -1.5705,0.4533 -2.5039,0.4533 -0.9692,0 -1.7769,-0.16 -2.4231,-0.48 -0.6282,-0.3378 -1.0949,-0.7911 -1.4,-1.36 l -1.2924,5.9733 c -0.0359,0.1956 -0.1346,0.3556 -0.2961,0.48 C 20.5787,23.9378 20.4171,24 20.2376,24 Z m 7.9156,-8 c 0.6461,0 1.1936,-0.1422 1.6423,-0.4267 0.4667,-0.3022 0.8436,-0.6933 1.1308,-1.1733 0.3052,-0.48 0.5475,-1.0044 0.727,-1.5733 C 28.9699,12.56 29.0417,12.2844 29.0956,12 29.1494,11.7156 29.1943,11.44 29.2302,11.1733 29.302,10.6044 29.302,10.08 29.2302,9.6 29.1763,9.12 28.9968,8.73778 28.6917,8.45333 28.3866,8.15111 27.9109,8 27.2647,8 26.6006,8 26.0173,8.15111 25.5147,8.45333 25.0301,8.75556 24.6352,9.13778 24.33,9.6 c -0.3051,0.4622 -0.5295,0.96 -0.6731,1.4933 -0.0897,0.32 -0.1705,0.6489 -0.2423,0.9867 -0.0718,0.3378 -0.1346,0.6756 -0.1884,1.0133 -0.0898,0.4978 -0.0898,0.9689 0,1.4134 0.1077,0.4266 0.332,0.7822 0.6731,1.0666 C 24.2403,15.8578 24.7339,16 25.3801,16 Z"
           fill="#ff0420"
           id="path6" />
        <path
           d="m 42.6677,19.2 c -1.1129,0 -2.145,-0.1511 -3.0963,-0.4533 -0.9333,-0.3023 -1.7231,-0.7556 -2.3693,-1.36 -0.6282,-0.6045 -1.0769,-1.36 -1.3462,-2.2667 -0.2512,-0.9067 -0.2692,-1.9733 -0.0538,-3.2 0.1256,-0.7644 0.2692,-1.52 0.4308,-2.26667 0.1795,-0.76444 0.359,-1.53777 0.5385,-2.32 0.5923,-2.4 1.6513,-4.22222 3.177,-5.46666 C 41.492,0.622222 43.5292,0 46.0601,0 c 1.1128,0 2.1359,0.16 3.0693,0.48 0.9333,0.302223 1.7231,0.76444 2.3693,1.38667 0.6461,0.62222 1.0949,1.38666 1.3462,2.29333 0.2692,0.90667 0.2961,1.96444 0.0807,3.17333 -0.1436,0.78223 -0.2961,1.55556 -0.4577,2.32 C 52.3064,10.4 52.1269,11.1556 51.9294,11.92 51.3192,14.3733 50.2512,16.2044 48.7255,17.4133 47.1998,18.6044 45.1805,19.2 42.6677,19.2 Z m 0.2961,-3.44 c 1.077,0 2.0283,-0.3111 2.8539,-0.9333 0.8257,-0.64 1.4001,-1.6534 1.7232,-3.04 C 47.7383,11.0044 47.9088,10.2756 48.0524,9.6 48.214,8.90667 48.3576,8.17778 48.4832,7.41333 48.7524,6.02667 48.6358,5.02222 48.1332,4.4 47.6486,3.76 46.8588,3.44 45.7639,3.44 44.669,3.44 43.7177,3.76 42.91,4.4 42.1023,5.02222 41.5279,6.02667 41.1869,7.41333 40.9894,8.17778 40.8189,8.90667 40.6753,9.6 c -0.1436,0.6756 -0.2872,1.4044 -0.4308,2.1867 -0.2513,1.3866 -0.1436,2.4 0.3231,3.04 0.4846,0.6222 1.2834,0.9333 2.3962,0.9333 z"
           fill="#ff0420"
           id="path7" />
        <path
           d="m 61.5984,19.2 c -1.1128,0 -2.1449,-0.1511 -3.0962,-0.4533 -0.9333,-0.3023 -1.7231,-0.7556 -2.3693,-1.36 -0.6282,-0.6045 -1.0769,-1.36 -1.3462,-2.2667 -0.2513,-0.9067 -0.2692,-1.9733 -0.0538,-3.2 0.1256,-0.7644 0.2692,-1.52 0.4308,-2.26667 0.1795,-0.76444 0.3589,-1.53777 0.5384,-2.32 0.5924,-2.4 1.6514,-4.22222 3.177,-5.46666 C 60.4228,0.622222 62.46,0 64.9908,0 c 1.1129,0 2.136,0.16 3.0694,0.48 0.9333,0.302223 1.7231,0.76444 2.3693,1.38667 0.6461,0.62222 1.0949,1.38666 1.3461,2.29333 0.2693,0.90667 0.2962,1.96444 0.0808,3.17333 -0.1436,0.78223 -0.2962,1.55556 -0.4577,2.32 C 71.2372,10.4 71.0577,11.1556 70.8602,11.92 70.25,14.3733 69.182,16.2044 67.6563,17.4133 66.1306,18.6044 64.1113,19.2 61.5984,19.2 Z m 0.2962,-3.44 c 1.077,0 2.0283,-0.3111 2.8539,-0.9333 0.8257,-0.64 1.4001,-1.6534 1.7232,-3.04 C 66.6691,11.0044 66.8396,10.2756 66.9832,9.6 67.1447,8.90667 67.2883,8.17778 67.414,7.41333 67.6832,6.02667 67.5666,5.02222 67.064,4.4 66.5793,3.76 65.7896,3.44 64.6947,3.44 63.5998,3.44 62.6485,3.76 61.8408,4.4 61.033,5.02222 60.4587,6.02667 60.1176,7.41333 59.9202,8.17778 59.7497,8.90667 59.6061,9.6 c -0.1436,0.6756 -0.2872,1.4044 -0.4308,2.1867 -0.2513,1.3866 -0.1436,2.4 0.3231,3.04 0.4846,0.6222 1.2834,0.9333 2.3962,0.9333 z"
           fill="#ff0420"
           id="path8" />
      </g>
    </g>
  </g>
  <defs
     id="defs8">
    <clipPath
       id="clip0_0_1">
      <rect
         width="1440"
         height="1272"
         fill="#ffffff"
         transform="translate(-80,-1164)"
         id="rect8"
         x="0"
         y="0" />
    </clipPath>
  </defs>
</svg>
