<svg width="217" height="55" viewBox="0 0 217 55" fill="none" xmlns="http://www.w3.org/2000/svg">
<g filter="url(#filter0_d_64_1372)">
<path d="M5.872 37C5.52533 37 5.248 36.8787 5.04 36.636C4.832 36.3933 4.76267 36.0813 4.832 35.7L12.008 1.9C12.0773 1.51866 12.268 1.20666 12.58 0.963999C12.892 0.721331 13.2213 0.599998 13.568 0.599998H27.14C29.22 0.599998 31.092 0.842664 32.756 1.328C34.42 1.81333 35.7893 2.55866 36.864 3.564C37.9733 4.53467 38.736 5.76533 39.152 7.256C39.568 8.712 39.568 10.4107 39.152 12.352C38.32 16.304 36.5867 19.2333 33.952 21.14C31.352 23.012 27.8853 23.948 23.552 23.948H15.856L13.36 35.7C13.2907 36.0813 13.1 36.3933 12.788 36.636C12.5107 36.8787 12.1813 37 11.8 37H5.872ZM17.104 17.5H23.812C25.476 17.5 26.932 17.0667 28.18 16.2C29.4627 15.3333 30.2947 14.0333 30.676 12.3C30.884 11.26 30.9187 10.3587 30.78 9.596C30.676 8.79867 30.2773 8.192 29.584 7.776C28.8907 7.32533 27.7987 7.1 26.308 7.1H19.34L17.104 17.5ZM40.0344 37C39.6877 37 39.4104 36.8787 39.2024 36.636C38.9944 36.3933 38.925 36.0813 38.9944 35.7L44.1944 11.26C44.2637 10.9133 44.4544 10.6187 44.7664 10.376C45.0784 10.0987 45.4077 9.96 45.7544 9.96H50.8504C51.197 9.96 51.457 10.0987 51.6304 10.376C51.8384 10.6187 51.9077 10.9133 51.8384 11.26L51.4224 13.34C52.2544 12.3 53.2944 11.4853 54.5424 10.896C55.825 10.272 57.385 9.96 59.2224 9.96H61.9784C62.325 9.96 62.585 10.0813 62.7584 10.324C62.9664 10.5667 63.0357 10.8787 62.9664 11.26L61.9784 15.732C61.909 16.1133 61.7184 16.4253 61.4064 16.668C61.129 16.9107 60.817 17.032 60.4704 17.032H55.9464C54.3864 17.032 53.0864 17.4653 52.0464 18.332C51.041 19.164 50.365 20.36 50.0184 21.92L47.0544 35.7C46.985 36.0813 46.7944 36.3933 46.4824 36.636C46.205 36.8787 45.8757 37 45.4944 37H40.0344ZM74.0176 37.52C71.3136 37.52 69.0429 37.052 67.2056 36.116C65.4029 35.1453 64.1203 33.776 63.3576 32.008C62.5949 30.24 62.4043 28.1773 62.7856 25.82C62.8549 25.1267 62.9763 24.3467 63.1496 23.48C63.3576 22.5787 63.5656 21.7987 63.7736 21.14C64.3976 18.748 65.3683 16.6853 66.6856 14.952C68.0029 13.184 69.7016 11.832 71.7816 10.896C73.8616 9.92533 76.3229 9.44 79.1656 9.44C81.8349 9.44 84.0709 9.92533 85.8736 10.896C87.7109 11.832 89.0283 13.184 89.8256 14.952C90.6576 16.6853 90.8656 18.748 90.4496 21.14C90.3456 21.7987 90.1896 22.5787 89.9816 23.48C89.8083 24.3467 89.6349 25.1267 89.4616 25.82C88.8376 28.1773 87.8843 30.24 86.6016 32.008C85.3189 33.776 83.6376 35.1453 81.5576 36.116C79.4776 37.052 76.9643 37.52 74.0176 37.52ZM74.6416 31.8C76.3749 31.8 77.8136 31.28 78.9576 30.24C80.1016 29.1653 80.9336 27.6053 81.4536 25.56C81.5923 25.04 81.7483 24.3467 81.9216 23.48C82.1296 22.6133 82.2683 21.92 82.3376 21.4C82.6843 19.3893 82.5629 17.8467 81.9736 16.772C81.3843 15.6973 80.2403 15.16 78.5416 15.16C76.8429 15.16 75.4216 15.6973 74.2776 16.772C73.1336 17.8467 72.3016 19.3893 71.7816 21.4C71.6429 21.92 71.4696 22.6133 71.2616 23.48C71.0883 24.3467 70.9669 25.04 70.8976 25.56C70.5509 27.6053 70.6549 29.1653 71.2096 30.24C71.7989 31.28 72.9429 31.8 74.6416 31.8ZM91.8333 46.88C91.4519 46.88 91.1746 46.7587 91.0013 46.516C90.7933 46.2733 90.7239 45.9613 90.7933 45.58L98.1253 11.26C98.1946 10.8787 98.3679 10.5667 98.6453 10.324C98.9573 10.0813 99.2866 9.96 99.6333 9.96H104.625C104.972 9.96 105.232 10.0813 105.405 10.324C105.613 10.5667 105.683 10.8787 105.613 11.26L105.197 13.236C106.272 12.1267 107.451 11.2253 108.733 10.532C110.016 9.804 111.68 9.44 113.725 9.44C115.493 9.44 117.001 9.73467 118.249 10.324C119.532 10.8787 120.537 11.7107 121.265 12.82C122.028 13.8947 122.531 15.1947 122.773 16.72C123.016 18.2107 122.981 19.8747 122.669 21.712C122.565 22.3707 122.444 22.96 122.305 23.48C122.201 24 122.063 24.5893 121.889 25.248C121.439 27.016 120.832 28.6627 120.069 30.188C119.307 31.6787 118.371 32.9787 117.261 34.088C116.152 35.1627 114.869 36.012 113.413 36.636C111.992 37.2253 110.38 37.52 108.577 37.52C106.705 37.52 105.145 37.208 103.897 36.584C102.684 35.9253 101.783 35.0413 101.193 33.932L98.6973 45.58C98.6279 45.9613 98.4373 46.2733 98.1253 46.516C97.8479 46.7587 97.5359 46.88 97.1893 46.88H91.8333ZM107.121 31.28C108.369 31.28 109.427 31.0027 110.293 30.448C111.195 29.8587 111.923 29.096 112.477 28.16C113.067 27.224 113.535 26.2013 113.881 25.092C114.055 24.572 114.193 24.0347 114.297 23.48C114.401 22.9253 114.488 22.388 114.557 21.868C114.696 20.7587 114.696 19.736 114.557 18.8C114.453 17.864 114.107 17.1187 113.517 16.564C112.928 15.9747 112.009 15.68 110.761 15.68C109.479 15.68 108.352 15.9747 107.381 16.564C106.445 17.1533 105.683 17.8987 105.093 18.8C104.504 19.7013 104.071 20.672 103.793 21.712C103.62 22.336 103.464 22.9773 103.325 23.636C103.187 24.2947 103.065 24.9533 102.961 25.612C102.788 26.5827 102.788 27.5013 102.961 28.368C103.169 29.2 103.603 29.8933 104.261 30.448C104.92 31.0027 105.873 31.28 107.121 31.28ZM126.21 37C125.863 37 125.586 36.8787 125.378 36.636C125.17 36.3933 125.101 36.0813 125.17 35.7L132.502 1.38C132.571 0.998664 132.745 0.686665 133.022 0.444C133.334 0.201332 133.663 0.079998 134.01 0.079998H139.626C140.007 0.079998 140.285 0.201332 140.458 0.444C140.666 0.686665 140.735 0.998664 140.666 1.38L138.17 13.08C139.245 11.9707 140.458 11.0867 141.81 10.428C143.197 9.76933 144.826 9.44 146.698 9.44C148.917 9.44 150.754 9.908 152.21 10.844C153.666 11.7453 154.671 13.08 155.226 14.848C155.781 16.5813 155.798 18.696 155.278 21.192L152.158 35.7C152.089 36.0813 151.898 36.3933 151.586 36.636C151.309 36.8787 150.997 37 150.65 37H144.982C144.601 37 144.306 36.8787 144.098 36.636C143.925 36.3933 143.873 36.0813 143.942 35.7L146.958 21.504C147.339 19.6667 147.235 18.2453 146.646 17.24C146.091 16.2 144.965 15.68 143.266 15.68C142.191 15.68 141.169 15.9053 140.198 16.356C139.262 16.8067 138.447 17.4653 137.754 18.332C137.095 19.1987 136.627 20.256 136.35 21.504L133.334 35.7C133.265 36.0813 133.091 36.3933 132.814 36.636C132.537 36.8787 132.207 37 131.826 37H126.21ZM170.809 37.52C168.174 37.52 165.973 37.0347 164.205 36.064C162.472 35.0587 161.276 33.5853 160.617 31.644C159.958 29.7027 159.872 27.328 160.357 24.52C160.426 24.2427 160.496 23.8787 160.565 23.428C160.669 22.9427 160.773 22.5613 160.877 22.284C161.57 19.6147 162.645 17.3267 164.101 15.42C165.592 13.4787 167.412 12.0053 169.561 11C171.745 9.96 174.137 9.44 176.737 9.44C179.649 9.44 181.937 10.0467 183.601 11.26C185.3 12.4387 186.426 14.068 186.981 16.148C187.536 18.1933 187.536 20.5507 186.981 23.22L186.773 24.416C186.704 24.7627 186.513 25.0573 186.201 25.3C185.889 25.5427 185.542 25.664 185.161 25.664H168.209C168.209 25.6987 168.192 25.768 168.157 25.872C168.157 25.9413 168.14 26.0107 168.105 26.08C167.932 27.1893 167.932 28.212 168.105 29.148C168.278 30.0493 168.677 30.7773 169.301 31.332C169.96 31.8867 170.809 32.164 171.849 32.164C172.681 32.164 173.409 32.0427 174.033 31.8C174.657 31.5573 175.177 31.2627 175.593 30.916C176.044 30.5693 176.39 30.2747 176.633 30.032C177.014 29.6853 177.309 29.4773 177.517 29.408C177.725 29.304 178.037 29.252 178.453 29.252H183.861C184.208 29.252 184.468 29.356 184.641 29.564C184.814 29.7373 184.849 29.9973 184.745 30.344C184.606 30.8987 184.173 31.592 183.445 32.424C182.752 33.2213 181.798 34.0187 180.585 34.816C179.372 35.5787 177.933 36.22 176.269 36.74C174.64 37.26 172.82 37.52 170.809 37.52ZM169.249 20.932H179.441V20.828C179.753 19.58 179.788 18.5053 179.545 17.604C179.337 16.668 178.904 15.94 178.245 15.42C177.586 14.9 176.72 14.64 175.645 14.64C174.57 14.64 173.6 14.9 172.733 15.42C171.866 15.94 171.138 16.668 170.549 17.604C169.994 18.5053 169.561 19.58 169.249 20.828V20.932ZM201.75 37C199.392 37 197.503 36.6533 196.081 35.96C194.66 35.232 193.707 34.1227 193.222 32.632C192.771 31.1413 192.771 29.2693 193.222 27.016L195.562 16.096H191.506C191.124 16.096 190.83 15.9747 190.622 15.732C190.448 15.4893 190.396 15.1773 190.466 14.796L191.194 11.26C191.263 10.8787 191.454 10.5667 191.766 10.324C192.078 10.0813 192.407 9.96 192.754 9.96H196.862L198.682 1.38C198.751 0.998664 198.924 0.686665 199.202 0.444C199.514 0.201332 199.86 0.079998 200.242 0.079998H205.338C205.684 0.079998 205.962 0.201332 206.17 0.444C206.378 0.686665 206.447 0.998664 206.378 1.38L204.506 9.96H211.006C211.387 9.96 211.664 10.0813 211.838 10.324C212.011 10.5667 212.063 10.8787 211.994 11.26L211.266 14.796C211.196 15.1773 211.006 15.4893 210.694 15.732C210.416 15.9747 210.087 16.096 209.706 16.096H203.206L201.022 26.392C200.848 27.2587 200.744 28.0213 200.71 28.68C200.71 29.304 200.883 29.7893 201.23 30.136C201.611 30.448 202.252 30.604 203.154 30.604H207.106C207.452 30.604 207.712 30.7253 207.886 30.968C208.094 31.2107 208.163 31.5053 208.094 31.852L207.262 35.7C207.192 36.0813 207.019 36.3933 206.742 36.636C206.464 36.8787 206.135 37 205.754 37H201.75Z" fill="#FF0420"/>
</g>
<defs>
<filter id="filter0_d_64_1372" x="0.728027" y="0.0799561" width="215.37" height="54.8" filterUnits="userSpaceOnUse" color-interpolation-filters="sRGB">
<feFlood flood-opacity="0" result="BackgroundImageFix"/>
<feColorMatrix in="SourceAlpha" type="matrix" values="0 0 0 0 0 0 0 0 0 0 0 0 0 0 0 0 0 0 127 0" result="hardAlpha"/>
<feOffset dy="4"/>
<feGaussianBlur stdDeviation="2"/>
<feComposite in2="hardAlpha" operator="out"/>
<feColorMatrix type="matrix" values="0 0 0 0 0 0 0 0 0 0 0 0 0 0 0 0 0 0 0.25 0"/>
<feBlend mode="normal" in2="BackgroundImageFix" result="effect1_dropShadow_64_1372"/>
<feBlend mode="normal" in="SourceGraphic" in2="effect1_dropShadow_64_1372" result="shape"/>
</filter>
</defs>
</svg>
